<?xml version="1.0" encoding="UTF-8" ?><svg id="Layer_1" data-name="Layer 1" xmlns="http://www.w3.org/2000/svg" viewBox="0 0 640 640"><defs><style>.cls-1{fill:none;}.cls-2{fill:#fbb766;}</style></defs><title>discuss-icon</title><rect class="cls-1" x="127.06" y="150.57" width="385.94" height="340.58"/><path class="cls-2" d="M537,474v19.15c0,10.57-9.07,19.14-20.34,19.14H123.4c-11.23,0-20.34-8.49-20.34-19.14V474Z"/><path class="cls-2" d="M482.76,333.62h27.12V461.26H130.18V231.39c0-13.94,12.12-25.41,27.1-25.41h54.27V231.5H157.3V435.74H482.76Z"/><path class="cls-2" d="M509.88,129.39H265.79c-15,0-27.12,11.42-27.12,25.53V282.56c0,14.1,12.14,25.53,27.12,25.53H320v51.06l81.36-51.06H509.88c15,0,27.12-11.42,27.12-25.53V154.92C537,140.82,524.86,129.39,509.88,129.39ZM341.52,230c-6.86,0-12.43-5.25-12.43-11.7s5.57-11.7,12.43-11.7,12.43,5.25,12.43,11.7S348.38,230,341.52,230Zm49.73,0c-6.85,0-12.43-5.25-12.43-11.7s5.58-11.7,12.43-11.7,12.43,5.25,12.43,11.7S398.11,230,391.25,230ZM441,230c-6.85,0-12.43-5.25-12.43-11.7s5.58-11.7,12.43-11.7,12.43,5.25,12.43,11.7S447.84,230,441,230Z"/></svg>