<?xml version="1.0" encoding="UTF-8" ?><svg id="Layer_1" data-name="Layer 1" xmlns="http://www.w3.org/2000/svg" xmlns:xlink="http://www.w3.org/1999/xlink" viewBox="0 0 640 640"><defs><style>.cls-1{fill:none;}.cls-2{clip-path:url(#clip-path);}.cls-3{fill:#fbb766;}</style><clipPath id="clip-path"><rect class="cls-1" x="90.98" y="110" width="458.22" height="426.34"/></clipPath></defs><title>share-icon</title><g class="cls-2"><path class="cls-3" d="M520.15,163.19H548.7v-13.3H518.62a21.44,21.44,0,0,0-19.88-13.29,24.91,24.91,0,0,0-8.16,1.42c-2.55-8.54-10.72-14.72-20.91-14.72a24.61,24.61,0,0,0-8.16,1.43C459,116.18,450.79,110,440.61,110c-9.68,0-18.36,6.18-20.91,14.73a22.47,22.47,0,0,0-8.16-1.43c-11.73,0-21.41,9-21.41,19.94v6.64H298.39a15,15,0,0,0-12.22,6.64H278l-29.53-8V110H234.2V144.2l-26.5-7.12-59.15-.48V110H134.28l0,28c-8.16,2.86-14.28,10-14.28,18.51a20.41,20.41,0,0,0,1.53,7.61c-9.17,2.37-15.81,10-15.81,19.47a20.35,20.35,0,0,0,1.53,7.6c-9.17,2.37-15.81,10-15.81,19.47s6.64,17.1,15.81,19.47a18.35,18.35,0,0,0-1.53,7.58c0,10.92,9.68,19.93,21.41,19.93h7.12v86.41c0,4.74,3.07,9,7.13,11.39l0,1v5.69l-9.18,27.54H91v13.3h36.7L120,427.61l-.52,55.08H91V496L121,496a21.43,21.43,0,0,0,19.88,13.3,24.61,24.61,0,0,0,8.16-1.43c2.55,8.55,10.72,14.73,20.9,14.73a24.62,24.62,0,0,0,8.17-1.43c2.55,8.55,10.7,14.72,20.9,14.72,9.68,0,18.36-6.17,20.9-14.72a22.59,22.59,0,0,0,8.17,1.43c11.73,0,21.41-9,21.41-19.94V496h92.75a15,15,0,0,0,12.22-6.64h20.9l16.84,11.87v35.13l14.23,0V510.22l27,12.81h30.06c11.73,0,21.41-9,21.41-19.93v-6.64h7.13v39.87h14.28V496.46h7.14c11.73,0,21.4-9,21.4-19.94a20.06,20.06,0,0,0-1.53-7.6c9.18-2.38,15.81-10,15.81-19.48,0-9-6.63-17.09-15.81-19.47a18.35,18.35,0,0,0,1.53-7.6c0-9-6.63-17.1-15.8-19.47a18.6,18.6,0,0,0,1.53-7.6c0-8.55-6.12-16.14-14.28-18.51V303.24c0-4.75-3.07-9-7.12-11.39v-7.6l8.65-27.54h41.27v-13.3H512.5l8.16-24.68Zm-221.72,0h92.77v6.64h-7.13c-11.73,0-21.41,9-21.41,19.94v28l13.26,25.17H298.43ZM119.51,236.77c0-3.8,3.07-6.64,7.13-6.64h42.8v-13.3H112.39c-4.09,0-7.13-2.85-7.13-6.64s3.07-6.64,7.13-6.64h57.08V190.24h-42.8c-4.09,0-7.13-2.86-7.13-6.64s3.07-6.64,7.13-6.64h42.82v-13.3H140.93c-4.08,0-7.12-2.85-7.12-6.64s3.07-6.64,7.12-6.64h63.2l70.34,19.47h9.17v66.95H259.7L229.63,257.7l-26.5,12.35h-27c-4.09,0-7.13-2.86-7.13-6.65l0-6.69h21.4v-13.3H126.67A7.05,7.05,0,0,1,119.51,236.77Zm35.68,19.94v6.64c0,10.92,9.68,19.93,21.4,19.93h30.07l27-12.35v72.65H148.06V256.71Zm79,246.37c0,3.81-3.07,6.64-7.12,6.64s-7.13-2.85-7.13-6.64V463.22H205.66v53.17c0,3.8-3.07,6.64-7.13,6.64s-7.12-2.85-7.12-6.64V463.22h-14.3v39.87c0,3.81-3.07,6.64-7.12,6.64s-7.13-2.85-7.13-6.64V463.19H148.58v26.6c0,3.8-3.07,6.64-7.13,6.64s-7.12-2.86-7.12-6.64l0-58.87,20.9-65.52v-8.55h71.89v22.31l22.41,28,13.26,24.69V457c0,3.8-3.07,6.64-7.13,6.64l-7.16,0V443.76H234.2Zm107-19.93H248.47v-6.64h7.13c11.73,0,21.41-9,21.41-19.94v-28l-13.25-25.18h78v79.77ZM255.6,389.63V392l-14.28-18,0-17.56v-1.9c4.08-2.37,7.12-6.64,7.12-11.38V261.45l16.82-11.38H286.2a15,15,0,0,0,12.22,6.64h87.66l12.22,15.67v19.47c-4.08,2.37-7.13,6.64-7.13,11.39v85l-29.57,8.07h-8.16a15,15,0,0,0-12.22-6.64Zm236-86.39v73.09H434l-28.55,8.07V303.23Zm28.55,119.62c0,3.81-3.08,6.65-7.13,6.65h-42.8V442.8h57.08c4.08,0,7.12,2.86,7.12,6.64s-3.07,6.66-7.14,6.66H470.19v13.29H513c4.09,0,7.13,2.86,7.13,6.65s-3.07,6.64-7.13,6.64H448.78V496h21.41v6.64c0,3.8-3.07,6.64-7.13,6.64H436l-26.5-12.35L379.47,476h-24V409.57h7.13l72.89-19.94h63.19c4.08,0,7.13,2.85,7.13,6.64s-3.07,6.64-7.13,6.64H470.16v13.3H513a7.07,7.07,0,0,1,7.14,6.65ZM484.46,281.39v8.55H412.59V267.63l-22.42-28L376.9,214.95V189.77c0-3.8,3.07-6.64,7.13-6.64h7.14v19.93h14.28v-59.8c0-3.8,3.07-6.64,7.13-6.64s7.13,2.85,7.13,6.64v39.87H434V129.95c0-3.8,3.08-6.64,7.13-6.64s7.13,2.86,7.13,6.64v53.17h14.29V143.25c0-3.8,3.07-6.64,7.13-6.64s7.13,2.85,7.13,6.64v39.89h14.28V156.55c0-3.8,3.07-6.64,7.12-6.64s7.13,2.85,7.13,6.64V215.4Z"/></g></svg>