<?xml version="1.0" encoding="UTF-8" ?><svg id="Layer_1" data-name="Layer 1" xmlns="http://www.w3.org/2000/svg" viewBox="0 0 265.87 265.87"><defs><style>.cls-1{fill:#96579e;}.cls-2{fill:none;stroke:#fff;stroke-linecap:round;stroke-linejoin:round;stroke-width:3.96px;}</style></defs><title>desktop splash-mockup</title><circle class="cls-1" cx="132.93" cy="132.93" r="132.93"/><path class="cls-2" d="M158.77,100c0,14.58-7.89,43.55-26.41,43.55S106,114.56,106,100a26.41,26.41,0,1,1,52.81,0Z"/><path class="cls-2" d="M79.73,192.29,77.93,175c0-6.63,5.19-13.62,11.54-15.53l19.78-6"/><path class="cls-2" d="M155.81,153.79l18.1,5.6c6.33,2,11.52,9,11.52,15.61l-1.8,17.3"/><polygon class="cls-2" points="155.86 153.63 143.59 168.85 134.06 159.32 147.81 145.58 155.86 153.63"/><polygon class="cls-2" points="109.28 153.63 121.56 168.85 131.08 159.32 117.33 145.58 109.28 153.63"/><path class="cls-2" d="M211.89,111.81c0,10.26-5.55,30.65-18.58,30.65s-18.58-20.38-18.58-30.65a18.58,18.58,0,0,1,37.16,0Z"/><line class="cls-2" x1="163.13" y1="155.35" x2="177.04" y2="149.48"/><path class="cls-2" d="M209.81,149.67l12.74,3.94a12.26,12.26,0,0,1,8.1,11l-1.27,12.17"/><polygon class="cls-2" points="209.84 149.56 201.2 160.27 194.5 153.56 204.17 143.89 209.84 149.56"/><polygon class="cls-2" points="177.07 149.56 185.7 160.27 192.4 153.56 182.73 143.89 177.07 149.56"/><path class="cls-2" d="M54,111.81c0,10.26,5.55,30.65,18.58,30.65s18.58-20.38,18.58-30.65a18.58,18.58,0,0,0-37.16,0Z"/><line class="cls-2" x1="102.41" y1="155.57" x2="88.82" y2="149.48"/><path class="cls-2" d="M56.06,149.67l-12.74,3.94a12.26,12.26,0,0,0-8.1,11l1.27,12.17"/><polygon class="cls-2" points="56.03 149.56 64.66 160.27 71.36 153.56 61.69 143.89 56.03 149.56"/><polygon class="cls-2" points="88.8 149.56 80.16 160.27 73.46 153.56 83.13 143.89 88.8 149.56"/></svg>