<?xml version="1.0" encoding="UTF-8" ?><svg id="Layer_1" data-name="Layer 1" xmlns="http://www.w3.org/2000/svg" viewBox="0 0 265.87 265.87"><defs><style>.cls-1{fill:#b0c752;}.cls-2{fill:none;stroke:#fff;stroke-linecap:round;stroke-linejoin:round;stroke-width:4.52px;}</style></defs><title>desktop splash-mockup</title><circle class="cls-1" cx="132.93" cy="132.93" r="132.93"/><path class="cls-2" d="M187.84,79.38c-16.88-16.37-45.17-13-58,7-14.55,22.77-1.58,51.87,23.42,57.72,25.44,6,49.68-15.48,46.38-41.25-1.1-8.6-4.32-15.9-10.36-22"/><path class="cls-2" d="M206.94,196.9H54.16"/><path class="cls-2" d="M176.82,90.4C167.51,80.21,149,83,141.92,96.27,133.82,111.5,144,129.72,162.5,130c8.2.14,18.4-6.49,20.79-14.33,2.61-8.56,2.34-17.08-5-23.83"/><path class="cls-2" d="M107.78,129.33v52.15"/><path class="cls-2" d="M92.35,136.67v44.81"/><path class="cls-2" d="M211.71,69.46c-3.43-.19-6.87.4-10.29-.36-1.6-.36-2.38.92-3.3,1.83-8.94,8.93-18,17.79-26.76,26.86-2.25,2.32-4.19,3.31-7.43,2.23a7.14,7.14,0,0,0-9.15,4.33c-1.35,3.66.4,7.61,4,9.58a7.18,7.18,0,0,0,8.08-1.14,7.73,7.73,0,0,0,2.19-8.42A18.84,18.84,0,0,1,168,101"/><path class="cls-2" d="M122.83,143.65v37.46"/><path class="cls-2" d="M199.22,143.65v37.46"/><path class="cls-2" d="M138.26,154.67v26.44"/><path class="cls-2" d="M183.8,154.67v26.44"/><path class="cls-2" d="M77.29,155.4v25.71"/><path class="cls-2" d="M153.32,158.71v22.77"/><path class="cls-2" d="M168.74,158.71v22.77"/><path class="cls-2" d="M61.87,162.75v18.36"/></svg>