<?xml version="1.0" encoding="UTF-8" ?><svg id="Layer_1" data-name="Layer 1" xmlns="http://www.w3.org/2000/svg" viewBox="0 0 265.87 265.87"><defs><style>.cls-1{fill:#2ba8d1;}.cls-2{fill:none;stroke:#fff;stroke-linecap:round;stroke-linejoin:round;stroke-width:3.52px;}</style></defs><title>desktop splash-mockup</title><circle class="cls-1" cx="132.93" cy="132.93" r="132.93"/><circle class="cls-2" cx="132.93" cy="132.93" r="68.59"/><path class="cls-2" d="M99.13,185.57c5.18-2,13.08-3.52,22.33-4.22,3.63-.28,7.48-.42,11.46-.42s7.85.14,11.48.45c9.26.68,17.13,2.18,22.33,4.2"/><path class="cls-2" d="M164.94,155.22a109.43,109.43,0,0,1,16.59,4.41,55.41,55.41,0,0,1,11.86,5.72"/><path class="cls-2" d="M72.48,165.34a55.41,55.41,0,0,1,11.86-5.72,108.69,108.69,0,0,1,16.59-4.41"/><path class="cls-2" d="M84.34,159.63a88,88,0,0,1,0-53.39A70.09,70.09,0,0,1,99.13,80.3c8.58-9.33,19.48-15.19,31.4-15.89q1.2-.07,2.39-.07t2.39.07c11.93.7,22.83,6.56,31.43,15.89a70.41,70.41,0,0,1,14.79,25.94,88,88,0,0,1,0,53.39"/><path class="cls-2" d="M135.31,201.46q-1.2.07-2.39.07t-2.39-.07"/><path class="cls-2" d="M119.24,96.37c.63-4.31,1.38-8.27,2.23-11.86,2.93-12.47,7-20.18,11.46-20.18s8.53,7.71,11.48,20.15c.84,3.59,1.59,7.59,2.23,11.91"/><path class="cls-2" d="M146.63,169.45q-.95,6.5-2.23,11.93c-3,12.44-7,20.15-11.48,20.15s-8.53-7.71-11.46-20.18c-.84-3.59-1.59-7.57-2.23-11.88"/><polyline class="cls-2" points="201.35 132.93 185.68 132.93 171.94 132.93"/><polyline class="cls-2" points="93.92 132.93 80.19 132.93 64.35 132.93"/><path class="cls-2" d="M94.66,78c5.45,4,20.53,7,38.27,7,19.19,0,35.26-3.4,39.41-8"/><path class="cls-2" d="M164.94,110.65h0a109.1,109.1,0,0,0,16.57-4.41,55.41,55.41,0,0,0,11.86-5.72"/><path class="cls-2" d="M72.48,100.52a55.41,55.41,0,0,0,11.86,5.72,108.36,108.36,0,0,0,16.57,4.41h0"/><circle class="cls-2" cx="132.93" cy="132.93" r="39.01"/><polyline class="cls-2" points="110.04 137.91 120.17 147.46 153.21 114.41"/></svg>